<!-- width="125" height="67" -->
<svg viewBox="0 0 125 67" fill="none"
	xmlns="http://www.w3.org/2000/svg">
	<rect x="7.30249" width="118.2" height="50" rx="25" transform="rotate(8.39798 7.30249 0)" fill="#6AD03C"/>
	<path d="M67.6038 34.2291C67.5944 34.2924 67.4973 34.731 67.3125 35.5447L54.4282 33.6426C54.5045 34.7321 54.9302 35.6467 55.7051 36.3865C56.48 37.1262 57.5112 37.5912 58.7986 37.7812C59.685 37.9121 60.4845 37.9007 61.1973 37.7472C61.9342 37.5756 62.6402 37.2486 63.3153 36.766L65.5222 40.003C63.6472 41.6023 61.169 42.1745 58.0878 41.7196C56.1672 41.4361 54.5229 40.816 53.1546 39.8592C51.7894 38.8813 50.804 37.6684 50.1983 36.2204C49.5926 34.7724 49.4144 33.2043 49.6637 31.5159C49.9098 29.8486 50.5215 28.4079 51.4986 27.1935C52.5 25.9613 53.7411 25.077 55.222 24.5409C56.727 23.9868 58.3343 23.8359 60.0438 24.0883C61.711 24.3344 63.167 24.9159 64.4118 25.8329C65.6566 26.7499 66.5591 27.9398 67.1195 29.4026C67.7041 30.8475 67.8655 32.4563 67.6038 34.2291ZM59.5239 27.8284C58.4054 27.6633 57.4195 27.8412 56.5663 28.3622C55.713 28.8832 55.121 29.6799 54.7901 30.7524L63.1792 31.9909C63.1693 30.8897 62.8312 29.9664 62.1649 29.2211C61.5017 28.4547 60.6214 27.9905 59.5239 27.8284ZM77.8372 44.6353C76.0222 44.3673 74.4411 43.7565 73.094 42.8029C71.771 41.8312 70.7961 40.6199 70.1694 39.1688C69.5637 37.7208 69.3855 36.1526 69.6347 34.4643C69.884 32.7759 70.5077 31.3261 71.506 30.1149C72.5254 28.9068 73.8071 28.0394 75.3513 27.5126C76.9197 26.9678 78.6114 26.8294 80.4263 27.0974C82.2202 27.3622 83.7259 27.9726 84.9433 28.9287C86.185 29.8668 87.009 31.0774 87.4154 32.5607L83.2811 34.0529C82.6253 32.3603 81.4637 31.3909 79.7965 31.1448C78.5091 30.9547 77.381 31.2195 76.4122 31.939C75.4434 32.6586 74.8515 33.7465 74.6365 35.2027C74.4215 36.6589 74.6738 37.8714 75.3934 38.8402C76.1129 39.809 77.1164 40.3885 78.4038 40.5785C80.0921 40.8278 81.4842 40.2354 82.5801 38.8014L86.1021 41.4563C85.2907 42.7166 84.1535 43.6269 82.6907 44.1873C81.2489 44.7508 79.6311 44.9001 77.8372 44.6353ZM96.1977 47.3459C94.4038 47.081 92.8438 46.4733 91.5178 45.5228C90.2159 44.5543 89.2622 43.346 88.6565 41.8981C88.0508 40.4501 87.8726 38.8819 88.1218 37.1935C88.3711 35.5052 88.9948 34.0554 89.9931 32.8442C90.9914 31.633 92.252 30.7624 93.7751 30.2325C95.3224 29.6846 96.993 29.5431 98.7868 29.8079C100.581 30.0728 102.129 30.6895 103.43 31.658C104.735 32.6054 105.691 33.8031 106.296 35.2511C106.902 36.699 107.08 38.2672 106.831 39.9556C106.582 41.644 105.958 43.0937 104.96 44.3049C103.962 45.5161 102.699 46.3972 101.173 46.9482C99.6501 47.4781 97.9916 47.6107 96.1977 47.3459ZM96.7959 43.2938C98.0622 43.4807 99.1586 43.2113 100.085 42.4855C101.036 41.7417 101.617 40.6523 101.829 39.2172C102.041 37.7821 101.798 36.5817 101.099 35.616C100.425 34.6323 99.4549 34.047 98.1886 33.86C96.9224 33.6731 95.8138 33.9515 94.863 34.6953C93.9153 35.4179 93.3355 36.4968 93.1236 37.9319C92.9118 39.3671 93.1535 40.578 93.8488 41.5648C94.5473 42.5305 95.5296 43.1068 96.7959 43.2938Z" fill="white"/>
	<path d="M21.4313 39.5095C20.6025 39.119 19.8117 38.631 19.0589 38.0455C18.3061 37.46 17.5733 36.7852 16.8605 36.0209C18.5936 33.1242 20.8097 30.7005 23.5088 28.7498C26.2078 26.7992 29.1733 25.3578 32.4053 24.4254C28.9801 24.5302 25.7122 25.2614 22.6014 26.6191C19.4906 27.9768 16.8358 29.9482 14.6369 32.5334C14.5719 32.4108 14.5159 32.2849 14.4686 32.1559L14.3203 31.7398C13.6961 30.0033 13.4193 28.2617 13.4898 26.515C13.5603 24.7683 13.9688 23.104 14.7153 21.5224C15.5199 19.8146 16.6281 18.342 18.0398 17.1044C19.4515 15.8669 21.0441 14.9294 22.8175 14.2919C25.8102 13.2161 29.0712 13.1341 32.6005 14.0458C36.1298 14.9574 40.7021 17.0424 46.3174 20.3007C43.9414 26.5159 41.7094 31.0576 39.6214 33.9258C37.5335 36.7941 35.0118 38.759 32.0566 39.8204C30.2462 40.4712 28.4242 40.7715 26.5905 40.7214C24.7568 40.6713 23.0371 40.2673 21.4313 39.5095Z" fill="white"/>
</svg>
