 <!-- width="176" height="132" -->
<svg viewBox="0 0 176 132" fill="none"
	xmlns="http://www.w3.org/2000/svg">
	<circle cx="39" cy="93" r="38" fill="white"/>
	<path d="M53.6449 5.22078C41.4284 11.536 33.0779 24.2863 33.0779 38.987C33.0779 44.7184 34.3472 50.1533 36.62 55.026M62.6233 1.9413C65.3382 1.32526 68.1636 1 71.0649 1C85.1376 1 97.4231 8.6524 103.987 20.023" stroke="#374146" stroke-width="2" stroke-linecap="round"/>
	<path d="M155.481 5.84142C149.99 2.75824 143.655 1 136.909 1C115.929 1 98.9221 18.0074 98.9221 38.987C98.9221 47.7364 101.88 55.7949 106.851 62.217M164.445 12.8182C170.921 19.631 174.896 28.8448 174.896 38.987C174.896 59.9667 157.889 76.974 136.909 76.974C128.873 76.974 121.42 74.4788 115.282 70.2208" stroke="#374146" stroke-width="2" stroke-linecap="round"/>
	<path d="M76.974 93.013C76.974 113.993 59.9667 131 38.987 131C18.0074 131 1 113.993 1 93.013C1 72.0333 18.0074 55.026 38.987 55.026C59.9667 55.026 76.974 72.0333 76.974 93.013Z" stroke="#374146" stroke-width="2" stroke-linecap="round" stroke-dasharray="7 7"/>
	<path d="M102.678 55.0859C82.7001 56.2024 66.8442 72.756 66.8442 93.0129C66.8442 113.993 83.8516 131 104.831 131C108.647 131 112.331 130.437 115.805 129.391M139.123 76.6505C141.492 81.6057 142.818 87.1544 142.818 93.0129C142.818 105.614 136.682 116.783 127.235 123.693" stroke="#374146" stroke-width="2" stroke-linecap="round"/>
</svg>
