<?xml version="1.0" encoding="UTF-8"?>
<!DOCTYPE svg PUBLIC "-//W3C//DTD SVG 1.1//EN" "http://www.w3.org/Graphics/SVG/1.1/DTD/svg11.dtd">
<!-- Creator: CorelDRAW -->
<svg xmlns="http://www.w3.org/2000/svg" xml:space="preserve" width="67.7332mm" height="67.7332mm" version="1.1" style="shape-rendering:geometricPrecision; text-rendering:geometricPrecision; image-rendering:optimizeQuality; fill-rule:evenodd; clip-rule:evenodd"
viewBox="0 0 6773.32 6773.32"
 xmlns:xlink="http://www.w3.org/1999/xlink"
 xmlns:xodm="http://www.corel.com/coreldraw/odm/2003">
 <defs>
  <style type="text/css">
   <![CDATA[
    .fil1 {fill:#6AD03C}
    .fil0 {fill:#374146;fill-rule:nonzero}
   ]]>
  </style>
 </defs>
 <g id="Слой_x0020_1">
  <metadata id="CorelCorpID_0Corel-Layer"/>
  <path class="fil0" d="M1788.4 2626.21l0.58 705.35 -176.19 179.92 0 -885.27 175.61 0zm167.13 733.4l767.86 849.45 -243.25 0 -645.82 -725.67 121.21 -123.78zm-166.56 170.09l-0.57 679.36 -175.61 0 0 -499.45 176.18 -179.91z"/>
  <path class="fil0" d="M3232.34 3985.99l-67.73 0c-242.05,0 -423.59,-54.97 -544.62,-169.67 -121.03,-114.7 -181.55,-263.81 -181.55,-447.32 0,-181.95 60.53,-329.87 181.55,-443.77 121.02,-113.91 302.57,-171.05 544.62,-173.24l61.21 -0.56 0 167.5 -65.96 -0.82c-178.75,-2.26 -313.65,41.14 -404.6,123.39 -90.96,82.26 -136.46,191.44 -136.46,327.5 0,137.63 45.49,247.2 136.46,328.67 90.95,81.47 225.88,117.73 404.6,122.21l67.41 1.69 5.07 164.42zm132.11 -1234l61.2 0c240.48,0 421.62,59.33 543.43,173.24 121.82,113.91 182.73,261.82 182.73,443.77 -1.58,183.51 -62.89,332.62 -183.92,447.32 -121.02,114.69 -301.77,169.67 -542.24,169.67l-67.72 0 5.1 -165.27 67.36 -0.84c177.18,-2.24 311.68,-40.74 403.43,-122.21 91.76,-81.47 137.64,-191.04 137.64,-328.67 -1.58,-136.06 -47.86,-245.24 -138.82,-327.5 -90.96,-82.26 -225.07,-123.27 -402.25,-123.39l-65.94 -0.05 0 -166.07z"/>
  <polygon class="fil0" points="4253.77,2626.21 5416.58,2626.21 5416.58,4209.06 5240.97,4209.06 5240.97,2792.33 4429.38,2792.33 4429.38,4209.06 4253.77,4209.06 "/>
  <path class="fil1" d="M3255.59 1309.73l39.54 0 39.54 0c16.41,0 29.78,12.02 29.78,26.74l0 66.62 -22.07 0 0 31.12 22.07 0 0 243.33 -22.07 0 0 31.12 22.07 0 0 2066.09 -13 421.32c-0.21,7.21 -6.82,12.99 -14.87,12.99l-41.45 0 -41.44 0c-8.05,0 -14.66,-5.77 -14.87,-12.99l-13 -421.32 0 -2066.09 22.07 0 0 -31.12 -22.07 0 0 -243.33 22.07 0 0 -31.12 -22.07 0 0 -66.62c0,-14.72 13.37,-26.74 29.77,-26.74z"/>
  <path class="fil1" d="M3041.86 2094.74l28.25 27.66 28.25 27.67c11.72,11.47 12.87,29.41 2.57,39.94l-46.61 47.59 -15.77 -15.44 -21.77 22.24 15.76 15.44 -170.25 173.85 -15.76 -15.44 -21.78 22.23 15.77 15.44 -1445.59 1476.15 -304.07 291.92c-5.2,5 -13.97,4.51 -19.72,-1.12l-29.61 -29 -29.61 -29c-5.75,-5.63 -6.43,-14.38 -1.53,-19.69l285.5 -310.11 1445.58 -1476.14 15.77 15.44 21.77 -22.24 -15.76 -15.44 170.25 -173.85 15.76 15.44 21.78 -22.24 -15.77 -15.43 46.61 -47.6c10.31,-10.52 28.27,-9.75 39.98,1.73z"/>
 </g>
</svg>
