<!-- width="135" height="161" -->
<svg viewBox="0 0 135 161" fill="none"
	xmlns="http://www.w3.org/2000/svg">
	<path d="M112.827 6.22424L105.983 0.999948L53.4917 69.7567L27.2459 104.135L17.9168 116.355M126.513 16.6728L133.356 21.8971L126.794 30.4917M7.56147 129.919L1 138.513L14.6862 148.962L28.3724 159.411L34.9338 150.816M80.8641 90.6539L67.1779 80.2053M80.8641 90.6539L74.3026 99.2485M80.8641 90.6539L87.4255 82.0593M107.11 56.2755L93.4238 45.8269M107.11 56.2755L100.548 64.8701M107.11 56.2755L113.671 47.6809M54.6182 125.032L40.932 114.584M54.6182 125.032L48.0567 133.627M54.6182 125.032L61.1797 116.438M41.4953 142.221L34.6522 136.997M41.4953 142.221L34.9338 150.816M41.4953 142.221L48.0567 133.627M34.9338 150.816L28.0907 145.592M48.0567 133.627L41.2137 128.403M67.7411 107.843L60.8981 102.619M67.7411 107.843L61.1797 116.438M67.7411 107.843L74.3026 99.2485M61.1797 116.438L54.3366 111.213M74.3026 99.2485L67.4595 94.0242M93.987 73.4647L87.1439 68.2404M93.987 73.4647L87.4255 82.0593M93.987 73.4647L100.548 64.8701M87.4255 82.0593L80.5825 76.835M100.548 64.8701L93.7054 59.6458M120.233 39.0863L113.39 33.862M120.233 39.0863L113.671 47.6809M120.233 39.0863L126.794 30.4917M113.671 47.6809L106.828 42.4566M126.794 30.4917L119.951 25.2674" stroke="#374146" stroke-width="2" stroke-linecap="round" stroke-linejoin="round"/>
</svg>
