<!-- width="176" height="119" -->
<svg viewBox="0 0 176 119" fill="none"
	xmlns="http://www.w3.org/2000/svg">
	<path d="M135.887 61C136.342 59.5683 136.81 58.1289 137.293 56.6763C148.155 58.9684 164.149 63.1278 174.103 65.7958C169.878 85.9211 167.182 96.3566 162.099 114.25C159.755 113.803 157.577 113.376 155.5 112.952" stroke="#374146" stroke-width="2" stroke-linecap="round" stroke-linejoin="round"/>
	<path d="M155.646 66.1649C145.691 63.4969 140.155 61.9683 129.293 59.6762C124.146 75.1649 120.646 89.1649 117.289 108.13C132.516 112.741 140.521 114.661 154.099 117.25C159.182 99.3566 161.878 88.921 166.103 68.7957L161.032 67.5395" stroke="#374146" stroke-width="2" stroke-linecap="round" stroke-linejoin="round"/>
	<path d="M133.789 82.6885L131.516 92.529L129.239 92.003L131.089 83.9901L129.121 83.5355L129.543 81.708L133.789 82.6885Z" fill="#374146"/>
	<path d="M137.404 94.0665C136.588 93.8782 135.909 93.5089 135.364 92.9588C134.82 92.4086 134.453 91.7117 134.263 90.8682C134.084 90.0175 134.117 89.0626 134.362 88.0035C134.606 86.9445 134.994 86.0766 135.526 85.3997C136.069 84.7156 136.705 84.2457 137.436 83.9898C138.166 83.734 138.939 83.7003 139.754 83.8886C140.57 84.0769 141.25 84.4461 141.794 84.9963C142.338 85.5465 142.699 86.2469 142.878 87.0977C143.068 87.9412 143.041 88.8925 142.796 89.9515C142.552 91.0106 142.158 91.8821 141.615 92.5662C141.084 93.2431 140.453 93.7094 139.722 93.9652C138.992 94.221 138.219 94.2548 137.404 94.0665ZM137.849 92.1406C138.448 92.2791 138.977 92.1296 139.433 91.692C139.899 91.2567 140.256 90.5001 140.505 89.4223C140.754 88.3446 140.765 87.5079 140.537 86.9124C140.319 86.319 139.909 85.953 139.31 85.8145C138.719 85.6782 138.191 85.8277 137.725 86.263C137.269 86.7006 136.916 87.4582 136.667 88.536C136.418 89.6138 136.403 90.4493 136.621 91.0427C136.849 91.6382 137.258 92.0042 137.849 92.1406Z" fill="#374146"/>
	<path d="M146.945 96.27C146.13 96.0817 145.45 95.7125 144.906 95.1623C144.361 94.6121 143.994 93.9153 143.804 93.0717C143.625 92.221 143.658 91.2661 143.903 90.2071C144.148 89.148 144.536 88.2801 145.067 87.6032C145.61 86.9191 146.247 86.4492 146.977 86.1934C147.707 85.9376 148.48 85.9038 149.296 86.0921C150.111 86.2804 150.791 86.6497 151.335 87.1998C151.879 87.75 152.241 88.4505 152.419 89.3012C152.61 90.1447 152.582 91.096 152.338 92.1551C152.093 93.2141 151.699 94.0856 151.156 94.7697C150.625 95.4466 149.994 95.9129 149.264 96.1688C148.533 96.4246 147.76 96.4583 146.945 96.27ZM147.39 94.3441C147.99 94.4826 148.518 94.3331 148.974 93.8956C149.44 93.4602 149.797 92.7036 150.046 91.6259C150.295 90.5481 150.306 89.7114 150.078 89.1159C149.86 88.5225 149.451 88.1566 148.851 88.018C148.26 87.8817 147.732 88.0312 147.267 88.4666C146.81 88.9041 146.457 89.6617 146.208 90.7395C145.96 91.8173 145.944 92.6529 146.163 93.2462C146.39 93.8418 146.799 94.2077 147.39 94.3441Z" fill="#374146"/>
	<path d="M1 29.4951V82.4389C1 83.1759 1.40532 83.8532 2.05482 84.2015L59.4515 114.98M1 29.4951L59.4515 57.9902M1 29.4951L30.2258 15.2476M59.4515 114.98V57.9902M59.4515 114.98L113.964 84.2098C114.592 83.8552 114.98 83.1896 114.98 82.4681V66.5388M59.4515 57.9902L87.216 43.7427M114.98 29.4951L60.3417 1.45679C59.7813 1.16925 59.1183 1.16245 58.5522 1.43843L30.2258 15.2476M114.98 29.4951L87.216 43.7427M114.98 29.4951V46.5922M30.2258 15.2476L87.216 43.7427M87.216 43.7427V63.6892" stroke="#374146" stroke-width="2" stroke-linecap="round" stroke-linejoin="round"/>
	<path d="M21.0236 61.7186L16.3848 70.6898L14.3086 69.6162L18.0859 62.3111L16.2917 61.3834L17.1532 59.7173L21.0236 61.7186Z" fill="#374146"/>
	<path d="M21.7085 73.6375C20.9652 73.2531 20.398 72.727 20.007 72.0592C19.616 71.3914 19.4328 70.6253 19.4574 69.761C19.495 68.8925 19.7634 67.9755 20.2626 67.01C20.7618 66.0446 21.3527 65.2997 22.0352 64.7755C22.7307 64.2472 23.464 63.9496 24.2349 63.8826C25.0059 63.8157 25.763 63.9743 26.5063 64.3587C27.2497 64.7431 27.8168 65.2691 28.2079 65.937C28.5989 66.6048 28.7756 67.3729 28.738 68.2414C28.7134 69.1058 28.4514 70.0207 27.9522 70.9861C27.453 71.9516 26.8556 72.6985 26.1601 73.2268C25.4776 73.751 24.7509 74.0466 23.9799 74.1135C23.209 74.1805 22.4518 74.0218 21.7085 73.6375ZM22.6164 71.8817C23.1632 72.1644 23.7119 72.1504 24.2624 71.8395C24.8216 71.533 25.3551 70.8885 25.8632 69.906C26.3713 68.9234 26.5887 68.1154 26.5156 67.4821C26.451 66.8531 26.1453 66.3972 25.5985 66.1145C25.0602 65.8362 24.5115 65.8502 23.9524 66.1567C23.4018 66.4676 22.8725 67.1143 22.3644 68.0968C21.8564 69.0794 21.6347 69.8851 21.6993 70.5141C21.7724 71.1475 22.0781 71.6034 22.6164 71.8817Z" fill="#374146"/>
	<path d="M30.4068 78.1352C29.6635 77.7508 29.0963 77.2248 28.7053 76.5569C28.3143 75.8891 28.1311 75.123 28.1557 74.2587C28.1933 73.3902 28.4617 72.4732 28.961 71.5078C29.4602 70.5423 30.0511 69.7975 30.7336 69.2733C31.4291 68.745 32.1623 68.4473 32.9333 68.3804C33.7042 68.3134 34.4614 68.4721 35.2047 68.8564C35.948 69.2408 36.5152 69.7669 36.9062 70.4347C37.2972 71.1025 37.4739 71.8706 37.4363 72.7391C37.4117 73.6035 37.1498 74.5184 36.6505 75.4839C36.1513 76.4493 35.554 77.1962 34.8585 77.7245C34.176 78.2487 33.4492 78.5443 32.6783 78.6113C31.9073 78.6782 31.1502 78.5196 30.4068 78.1352ZM31.3147 76.3794C31.8615 76.6622 32.4102 76.6481 32.9608 76.3372C33.5199 76.0308 34.0535 75.3863 34.5615 74.4037C35.0696 73.4211 35.2871 72.6132 35.2139 71.9798C35.1493 71.3508 34.8436 70.895 34.2968 70.6122C33.7585 70.3339 33.2098 70.348 32.6507 70.6544C32.1002 70.9653 31.5708 71.612 31.0628 72.5946C30.5547 73.5771 30.333 74.3829 30.3976 75.0118C30.4707 75.6452 30.7764 76.1011 31.3147 76.3794Z" fill="#374146"/>
	<path d="M39.1052 82.6329C38.3618 82.2486 37.7947 81.7225 37.4037 81.0547C37.0126 80.3869 36.8294 79.6208 36.8541 78.7564C36.8917 77.8879 37.1601 76.9709 37.6593 76.0055C38.1585 75.04 38.7494 74.2952 39.4319 73.771C40.1274 73.2427 40.8606 72.9451 41.6316 72.8781C42.4026 72.8111 43.1597 72.9698 43.903 73.3542C44.6463 73.7385 45.2135 74.2646 45.6045 74.9324C45.9956 75.6002 46.1723 76.3684 46.1347 77.2369C46.11 78.1012 45.8481 79.0161 45.3489 79.9816C44.8497 80.9471 44.2523 81.694 43.5568 82.2223C42.8743 82.7464 42.1476 83.042 41.3766 83.109C40.6056 83.176 39.8485 83.0173 39.1052 82.6329ZM40.0131 80.8771C40.5599 81.1599 41.1086 81.1458 41.6591 80.8349C42.2182 80.5285 42.7518 79.884 43.2599 78.9014C43.7679 77.9189 43.9854 77.1109 43.9123 76.4775C43.8477 75.8485 43.542 75.3927 42.9951 75.1099C42.4569 74.8316 41.9082 74.8457 41.3491 75.1521C40.7985 75.463 40.2692 76.1097 39.7611 77.0923C39.2531 78.0748 39.0313 78.8806 39.0959 79.5096C39.1691 80.143 39.4748 80.5988 40.0131 80.8771Z" fill="#374146"/>
</svg>
