<svg width="30" height="28" viewBox="0 0 30 28" fill="none"
	xmlns="http://www.w3.org/2000/svg">
	<path d="M7.15138 2.02285L7.21337 1.02478C6.81426 0.999988 6.36307 0.999994 5.95105 1L5.93252 1C5.27879 1 4.30611 1.24187 3.49956 2.10631L3.49953 2.10628L3.49347 2.1129C3.45603 2.15375 3.41328 2.19922 3.36604 2.24947C2.67017 2.98956 1 4.7659 1 8.07951C1 9.86595 1.64899 11.5647 2.2922 12.8251C2.9091 14.034 3.56322 14.92 3.76392 15.1919C3.77487 15.2067 3.78447 15.2197 3.79264 15.2308L3.7978 15.2379L3.80308 15.2448C3.8029 15.2446 3.80892 15.2526 3.82589 15.2764C3.84142 15.2982 3.86101 15.326 3.8861 15.3616L3.90158 15.3836C3.94901 15.451 4.00994 15.5376 4.0826 15.6395C4.24474 15.8669 4.46588 16.1715 4.74245 16.5335C5.29513 17.2569 6.06963 18.2102 7.04067 19.2393C8.97375 21.2879 11.7278 23.6821 15.1043 25.134L15.105 25.1343C17.1531 26.0133 18.6402 26.518 19.9027 26.7552C21.1937 26.9978 22.2117 26.9534 23.3027 26.7932L23.3044 26.7929C24.1056 26.6739 25.1826 26.2177 26.1086 25.6269C27.0099 25.0518 28.0195 24.191 28.4 23.1223C28.6935 22.2981 28.8437 21.5256 28.897 20.9055C28.9235 20.5965 28.9273 20.31 28.9075 20.0634C28.8928 19.8805 28.8562 19.5599 28.6993 19.2827C28.4811 18.8832 28.1248 18.6594 27.8918 18.5289C27.7244 18.4352 27.5074 18.3321 27.301 18.234C27.2188 18.1949 27.1383 18.1567 27.0633 18.1201C26.7315 17.9524 25.7876 17.4893 24.854 17.0424C23.9548 16.612 22.968 16.1493 22.6012 16.0186L22.5987 16.0177C22.3307 15.9184 21.865 15.7459 21.3657 15.8041C20.7524 15.8756 20.3092 16.2458 19.9905 16.7251C19.6099 17.2976 18.4431 18.6581 18.0464 19.112L18.0451 19.1135C18.0449 19.1137 18.0448 19.114 18.0446 19.1142C18.0035 19.0996 17.9466 19.0759 17.8711 19.0377L17.8711 19.0377L17.8646 19.0345C15.9955 18.1057 14.5295 17.315 13.2289 16.2639C11.9502 15.2305 10.7983 13.9169 9.6214 11.9169C9.64284 11.8927 9.66892 11.8641 9.70051 11.8305C9.74145 11.787 9.78638 11.7404 9.83483 11.6901C10.241 11.2686 10.8938 10.5911 11.5058 9.37459L11.5058 9.37462L11.5106 9.36482C11.9155 8.53766 11.6736 7.81511 11.4483 7.36725C11.4483 7.36729 11.4483 7.36722 11.4482 7.36701C11.4472 7.36494 11.4399 7.3499 11.4242 7.31485C11.4084 7.27976 11.3881 7.23371 11.3634 7.17672C11.3141 7.06292 11.2505 6.91346 11.1757 6.73609C11.0264 6.38174 10.8362 5.92447 10.6337 5.43556C10.4689 5.03783 10.2958 4.61863 10.1306 4.21857C9.89118 3.6389 9.66838 3.09941 9.51168 2.72361L9.51093 2.72183C9.20678 1.99637 8.81193 1.4686 8.24422 1.20464C7.96891 1.07664 7.71442 1.041 7.5251 1.03019C7.43774 1.02521 7.35717 1.02535 7.30634 1.02544L7.30247 1.02545C7.24151 1.02555 7.22266 1.02531 7.20974 1.02456L7.15138 2.02285ZM7.15138 2.02285C7.1988 2.02563 7.24825 2.02554 7.29947 2.02545C7.67048 2.02481 8.13403 2.024 8.5887 3.10848C8.74495 3.48319 8.96642 4.01943 9.20509 4.59733C9.77437 5.97578 10.4415 7.59122 10.555 7.81668C10.7159 8.13665 10.8194 8.50234 10.6125 8.92516M7.15138 2.02285C6.78342 2 6.35797 2 5.93252 2C5.50708 2 4.81716 2.15999 4.23073 2.78851C4.19215 2.83061 4.149 2.87656 4.10203 2.92657C3.43508 3.6368 2 5.16499 2 8.07951C2 11.1183 4.17097 14.0595 4.57059 14.6009C4.58124 14.6153 4.59063 14.628 4.59869 14.639C4.62084 14.6681 4.66122 14.7255 4.7193 14.808C5.50551 15.9251 9.53526 21.6508 15.4994 24.2154L10.6125 8.92516M10.6125 8.92516C10.0704 10.0026 9.51013 10.5851 9.11272 10.9982C8.61656 11.514 8.37426 11.7659 8.73819 12.3877C11.2104 16.6045 13.6711 18.0673 17.4196 19.93L10.6125 8.92516Z" stroke="#374146" stroke-width="2"/>
</svg>
