<!-- width="166" height="132"  -->
<svg viewBox="0 0 166 132" fill="none"
	xmlns="http://www.w3.org/2000/svg">
	<path d="M82.7879 131L164.576 92.2582L139.609 80.169L26.8277 80.0404L1.86084 92.2582L82.7879 131Z" stroke="#374146" stroke-width="2" stroke-linecap="round" stroke-linejoin="round"/>
	<path d="M82.7881 106.894L164.576 68.1522L136 54L29.4106 54.6704L21 59C15 62 11 62.5 3.5 62.5C8 69.5 12.721 73.0154 20 76.5L57.8212 94.9416L82.7881 106.894Z" fill="#F7F7F7"/>
	<path d="M44.0464 88.3473L20 76.5C12.721 73.0154 8 69.5 3.5 62.5C11 62.5 15 62 21 59L29.4106 54.6704L136 54L164.576 68.1522L82.7881 106.894L57.8212 94.9416" stroke="#374146" stroke-width="2" stroke-linecap="round" stroke-linejoin="round"/>
	<path d="M81.9269 79.3443L163.715 40.6026L118.086 18.5085L81.9269 1C61.0632 11.2099 61.9998 11 38.9998 22C15.9999 33 10.4998 22 10.4998 22C10.4998 22 9.99988 45.5 33.9999 56.5C57.5347 67.2868 60.8757 68.9383 80.7301 78.7527L81.9269 79.3443Z" fill="#F7F7F7"/>
	<path d="M104.311 11.8386L81.9269 1C61.0632 11.2099 61.9998 11 38.9998 22C15.9999 33 10.4998 22 10.4998 22C10.4998 22 9.99988 45.5 33.9999 56.5C57.9999 67.5 60.9998 69 81.9269 79.3443L163.715 40.6026L118.086 18.5085" stroke="#374146" stroke-width="2" stroke-linecap="round" stroke-linejoin="round"/>
</svg>
