<svg width="34" height="33" viewBox="0 0 34 33" fill="none" xmlns="http://www.w3.org/2000/svg">
<path d="M15.5 5L3.5 12.5V22.5L15.5 27.5H23L26 18V8.5L15.5 5Z" fill="white"/>
<path d="M16.628 0C7.44933 0 0 7.392 0 16.5C0 25.608 7.44933 33 16.628 33C25.8066 33 33.2559 25.608 33.2559 16.5C33.2559 7.392 25.8066 0 16.628 0ZM24.3433 11.22C24.0939 13.827 23.0131 20.163 22.4644 23.0835C22.2316 24.321 21.766 24.7335 21.3337 24.783C20.3693 24.8655 19.6376 24.156 18.7065 23.5455C17.2432 22.5885 16.4118 21.9945 14.9984 21.0705C13.3523 19.998 14.4164 19.404 15.3642 18.447C15.6137 18.1995 19.8704 14.355 19.9536 14.0085C19.9651 13.956 19.9636 13.9015 19.9491 13.8498C19.9346 13.798 19.9076 13.7506 19.8704 13.7115C19.7706 13.629 19.6376 13.662 19.5212 13.6785C19.3716 13.7115 17.0437 15.246 12.5042 18.282C11.8391 18.7275 11.2405 18.9585 10.7084 18.942C10.1098 18.9255 8.9791 18.612 8.13107 18.3315C7.08351 18.0015 6.26874 17.82 6.33525 17.2425C6.36851 16.9455 6.78421 16.6485 7.56572 16.335C12.4211 14.2395 15.6469 12.8535 17.2598 12.1935C21.8824 10.2795 22.8302 9.9495 23.4621 9.9495C23.5951 9.9495 23.911 9.9825 24.1105 10.1475C24.2768 10.2795 24.3267 10.461 24.3433 10.593C24.3267 10.692 24.36 10.989 24.3433 11.22Z" fill="#34ABDF"/>
</svg>
