<!-- width="165" height="173" -->
<svg viewBox="0 0 165 173" fill="none"
	xmlns="http://www.w3.org/2000/svg">
	<path d="M102.442 7.66148L106.765 1.53234C111.475 1.79454 121.281 8.71049 123.109 13.0589L118.787 19.188L116.744 17.7472L114.863 20.4143L116.906 21.8551L113.312 26.9516L111.269 25.5107L109.251 28.371L111.294 29.8118L48.1865 119.297L14.6287 162.321C9.25402 159.754 6.80237 158.025 2.47533 153.75L31.8422 107.771L94.9501 18.2853L96.9932 19.7261L99.0103 16.8658L96.9673 15.425L100.561 10.3286L102.604 11.7694L104.485 9.1023L102.442 7.66148Z" stroke="#374146" stroke-width="2"/>
	<path d="M142.6 15.8144L146.923 9.6853C151.633 9.94749 161.439 16.8634 163.267 21.2119L158.945 27.341L156.902 25.9002L155.021 28.5673L157.064 30.0081L153.47 35.1045L151.427 33.6637L149.409 36.524L151.452 37.9648L88.3445 127.45L54.7866 170.474C49.412 167.907 46.9603 166.178 42.6333 161.903L72.0001 115.924L135.108 26.4382L137.151 27.879L139.168 25.0188L137.125 23.578L140.719 18.4815L142.762 19.9224L144.643 17.2553L142.6 15.8144Z" stroke="#374146" stroke-width="2"/>
</svg>
